<?xml version="1.0" encoding="UTF-8"?>
<svg id="Layer_1" data-name="Layer 1" xmlns="http://www.w3.org/2000/svg" xmlns:xlink="http://www.w3.org/1999/xlink" viewBox="0 0 682.8 200.16">
  <defs>
    <style>
      .cls-1 {
        fill: #e2241b;
      }

      .cls-2 {
        fill: none;
      }

      .cls-3 {
        clip-path: url(#clippath-1);
      }

      .cls-4 {
        fill: #0b0f19;
      }

      .cls-5 {
        clip-path: url(#clippath);
      }
    </style>
    <clipPath id="clippath">
      <rect class="cls-2" x="-667.6" y="-557.42" width="2000" height="1333"/>
    </clipPath>
    <clipPath id="clippath-1">
      <rect class="cls-2" x="-667.6" y="-557.42" width="2000" height="1333"/>
    </clipPath>
  </defs>
  <g class="cls-5">
    <g class="cls-3">
      <path class="cls-4" d="M196.32,111.07c0-19.61,15.06-35.32,35.71-35.45,12.34-.13,22.34,4.67,28.05,12.6l-13.51,11.04c-3.12-4.67-8.31-7.66-14.28-7.66-11.17,0-18.44,8.96-18.44,19.48s7.66,19.48,18.83,19.48c6.75,0,11.17-3.38,14.67-8.05l12.73,11.04c-6.36,8.18-15.71,12.99-28.96,12.99-19.35,0-34.8-15.84-34.8-35.45"/>
      <path class="cls-4" d="M266.96,77.31h17.01v12.86c2.34-9.74,9.22-15.06,20.91-14.41v16.49h-2.47c-10.13,0-17.92,6.75-17.92,18.05v34.54h-17.53v-67.53Z"/>
      <path class="cls-4" d="M304.88,111.2c0-19.48,14.67-35.58,34.93-35.58s34.28,16.1,34.28,35.58c0,1.95-.13,4.02-.52,6.23h-50.52c1.95,7.92,7.92,13.51,16.75,13.51,7.53,0,13.38-3.9,16.49-9.09l13.63,10.26c-5.45,8.44-16.75,14.41-30.13,14.41-20.91,0-34.93-15.84-34.93-35.32M356.43,104.32c-1.95-7.53-8.31-13.63-16.88-13.63s-14.54,5.58-16.49,13.63h33.37Z"/>
      <path class="cls-4" d="M378.25,111.33c0-19.48,14.8-35.45,33.37-35.45,11.56,0,17.66,4.67,21.3,11.82v-37.66h17.53v94.8h-17.01v-11.04c-3.64,7.66-9.74,12.73-21.82,12.73-18.57,0-33.37-15.71-33.37-35.19M414.48,130.68c11.56,0,18.96-8.83,18.96-19.35s-7.4-19.61-18.96-19.61-18.7,8.96-18.7,19.48,7.53,19.48,18.7,19.48"/>
      <path class="cls-4" d="M469.54,51.08c6.1,0,10.52,4.67,10.52,10.26s-4.42,10.39-10.52,10.39-10.52-4.68-10.52-10.39,4.55-10.26,10.52-10.26M460.84,77.31h17.53v67.53h-17.53v-67.53Z"/>
      <path class="cls-4" d="M486.16,111.2c0-19.48,15.06-35.45,35.97-35.45s35.97,15.97,35.97,35.45-15.06,35.32-35.97,35.32-35.97-15.84-35.97-35.32M522.13,130.55c11.17,0,18.44-8.83,18.44-19.35s-7.27-19.48-18.44-19.48-18.44,8.96-18.44,19.48,7.27,19.35,18.44,19.35"/>
      <path class="cls-4" d="M565.89,77.31h17.27v9.87c3.51-7.53,10.26-11.43,20.65-11.43,14.54,0,25.71,10.78,25.71,27.79v41.29h-17.53v-37.01c0-11.69-5.84-16.75-14.54-16.75-7.4,0-14.02,5.07-14.02,16.75v37.01h-17.53v-67.53Z"/>
      <path class="cls-1" d="M155.52,97.13c-29.81-.16-59.19-8.12-85.01-23.04l-15.34-8.86,31.6-18.24c2.63-1.52,5.62-2.32,8.66-2.32s6.03.8,8.66,2.32l42.77,24.71c5.34,3.08,8.66,8.83,8.66,15v10.43Z"/>
      <path class="cls-1" d="M46.31,146.13c-1.92,0-3.83-.51-5.52-1.48-3.4-1.96-5.51-5.62-5.51-9.56v-52.01c.01-3.93,2.12-7.59,5.53-9.55l.14-.1c1.64-.91,3.49-1.39,5.38-1.39s3.85.51,5.53,1.47l23.69,13.69v43.75l-23.72,13.69c-1.68.97-3.58,1.48-5.51,1.48"/>
      <path class="cls-1" d="M95.41,173.48c-3.04,0-6.03-.8-8.66-2.32l-31.59-18.24,15.35-8.86c25.82-14.91,55.19-22.86,85-23.03v10.42c0,6.17-3.32,11.91-8.66,15l-42.79,24.71c-2.63,1.52-5.62,2.32-8.66,2.32"/>
    </g>
  </g>
</svg>